<?xml version="1.0" encoding="us-ascii" standalone="no"?><svg xmlns="http://www.w3.org/2000/svg" xmlns:xlink="http://www.w3.org/1999/xlink" contentStyleType="text/css" height="670px" preserveAspectRatio="none" style="width:878px;height:670px;background:#FFFFFF;" version="1.1" viewBox="0 0 878 670" width="878px" zoomAndPan="magnify"><defs/><g><!--cluster orders--><g id="cluster_orders"><rect fill="none" height="458" style="stroke:#444444;stroke-width:1.0;stroke-dasharray:7.0,7.0;" width="333" x="271" y="206"/><text fill="#444444" font-family="sans-serif" font-size="16" font-weight="bold" lengthAdjust="spacing" textLength="62" x="406.5" y="242.8516">Orders</text><text fill="#444444" font-family="sans-serif" font-size="12" font-weight="bold" lengthAdjust="spacing" textLength="61" x="407" y="257.7637">[system]</text></g><!--cluster inventory--><g id="cluster_inventory"><rect fill="none" height="504" style="stroke:#444444;stroke-width:1.0;stroke-dasharray:7.0,7.0;" width="240" x="7" y="7"/><text fill="#444444" font-family="sans-serif" font-size="16" font-weight="bold" lengthAdjust="spacing" textLength="86" x="84" y="43.8516">Inventory</text><text fill="#444444" font-family="sans-serif" font-size="12" font-weight="bold" lengthAdjust="spacing" textLength="61" x="96.5" y="58.7637">[system]</text></g><!--cluster fulfillment--><g id="cluster_fulfillment"><rect fill="none" height="504" style="stroke:#444444;stroke-width:1.0;stroke-dasharray:7.0,7.0;" width="244" x="628" y="7"/><text fill="#444444" font-family="sans-serif" font-size="16" font-weight="bold" lengthAdjust="spacing" textLength="90" x="705" y="43.8516">Fulfillment</text><text fill="#444444" font-family="sans-serif" font-size="12" font-weight="bold" lengthAdjust="spacing" textLength="61" x="719.5" y="58.7637">[system]</text></g><!--entity orders_api--><g id="elem_orders_api"><rect fill="#438DD5" height="66.5625" style="stroke:#3C7FC0;stroke-width:0.5;" width="118" x="287" y="277"/><text fill="#FFFFFF" font-family="sans-serif" font-size="12" font-style="italic" lengthAdjust="spacing" textLength="74" x="309" y="298.1387">&#171;container&#187;</text><text fill="#FFFFFF" font-family="sans-serif" font-size="16" font-weight="bold" lengthAdjust="spacing" textLength="62" x="297" y="315.8203">Orders</text><text fill="#FFFFFF" font-family="sans-serif" font-size="16" font-weight="bold" lengthAdjust="spacing" textLength="6" x="359" y="315.8203">&#160;</text><text fill="#FFFFFF" font-family="sans-serif" font-size="16" font-weight="bold" lengthAdjust="spacing" textLength="30" x="365" y="315.8203">API</text><text fill="#FFFFFF" font-family="sans-serif" font-size="12" font-style="italic" lengthAdjust="spacing" textLength="50" x="321" y="330.7324">[NestJS]</text></g><!--entity orders_events--><g id="elem_orders_events"><rect fill="#438DD5" height="66.5625" style="stroke:#3C7FC0;stroke-width:0.5;" width="148" x="440" y="277"/><text fill="#FFFFFF" font-family="sans-serif" font-size="12" font-style="italic" lengthAdjust="spacing" textLength="74" x="477" y="298.1387">&#171;container&#187;</text><text fill="#FFFFFF" font-family="sans-serif" font-size="16" font-weight="bold" lengthAdjust="spacing" textLength="62" x="450" y="315.8203">Orders</text><text fill="#FFFFFF" font-family="sans-serif" font-size="16" font-weight="bold" lengthAdjust="spacing" textLength="6" x="512" y="315.8203">&#160;</text><text fill="#FFFFFF" font-family="sans-serif" font-size="16" font-weight="bold" lengthAdjust="spacing" textLength="60" x="518" y="315.8203">Events</text><text fill="#FFFFFF" font-family="sans-serif" font-size="12" font-style="italic" lengthAdjust="spacing" textLength="40" x="458.5" y="330.7324">[Kafka</text><text fill="#FFFFFF" font-family="sans-serif" font-size="12" font-style="italic" lengthAdjust="spacing" textLength="4" x="498.5" y="330.7324">&#160;</text><text fill="#FFFFFF" font-family="sans-serif" font-size="12" font-style="italic" lengthAdjust="spacing" textLength="67" x="502.5" y="330.7324">Consumer]</text></g><!--entity orders_db--><g id="elem_orders_db"><path d="M366.5,582 C366.5,572 423,572 423,572 C423,572 479.5,572 479.5,582 L479.5,637.5625 C479.5,647.5625 423,647.5625 423,647.5625 C423,647.5625 366.5,647.5625 366.5,637.5625 L366.5,582 " fill="#438DD5" style="stroke:#3C7FC0;stroke-width:0.5;"/><path d="M366.5,582 C366.5,592 423,592 423,592 C423,592 479.5,592 479.5,582 " fill="none" style="stroke:#3C7FC0;stroke-width:0.5;"/><text fill="#FFFFFF" font-family="sans-serif" font-size="12" font-style="italic" lengthAdjust="spacing" textLength="74" x="386" y="607.1387">&#171;container&#187;</text><text fill="#FFFFFF" font-family="sans-serif" font-size="16" font-weight="bold" lengthAdjust="spacing" textLength="62" x="376.5" y="624.8203">Orders</text><text fill="#FFFFFF" font-family="sans-serif" font-size="16" font-weight="bold" lengthAdjust="spacing" textLength="6" x="438.5" y="624.8203">&#160;</text><text fill="#FFFFFF" font-family="sans-serif" font-size="16" font-weight="bold" lengthAdjust="spacing" textLength="25" x="444.5" y="624.8203">DB</text><text fill="#FFFFFF" font-family="sans-serif" font-size="12" font-style="italic" lengthAdjust="spacing" textLength="80" x="383" y="639.7324">[PostgreSQL]</text></g><!--entity orders_repo--><g id="elem_orders_repo"><rect fill="#438DD5" height="66.5625" style="stroke:#3C7FC0;stroke-width:0.5;" width="184" x="331" y="423.5"/><text fill="#FFFFFF" font-family="sans-serif" font-size="12" font-style="italic" lengthAdjust="spacing" textLength="117" x="364.5" y="444.6387">&#171;repo&#187;&#171;container&#187;</text><text fill="#FFFFFF" font-family="sans-serif" font-size="16" font-weight="bold" lengthAdjust="spacing" textLength="62" x="341" y="462.3203">Orders</text><text fill="#FFFFFF" font-family="sans-serif" font-size="16" font-weight="bold" lengthAdjust="spacing" textLength="6" x="403" y="462.3203">&#160;</text><text fill="#FFFFFF" font-family="sans-serif" font-size="16" font-weight="bold" lengthAdjust="spacing" textLength="96" x="409" y="462.3203">Repository</text><text fill="#FFFFFF" font-family="sans-serif" font-size="12" font-style="italic" lengthAdjust="spacing" textLength="50" x="398" y="477.2324">[NestJS]</text></g><!--entity inventory_api--><g id="elem_inventory_api"><rect fill="#438DD5" height="66.5625" style="stroke:#3C7FC0;stroke-width:0.5;" width="142" x="80" y="78"/><text fill="#FFFFFF" font-family="sans-serif" font-size="12" font-style="italic" lengthAdjust="spacing" textLength="74" x="114" y="99.1387">&#171;container&#187;</text><text fill="#FFFFFF" font-family="sans-serif" font-size="16" font-weight="bold" lengthAdjust="spacing" textLength="86" x="90" y="116.8203">Inventory</text><text fill="#FFFFFF" font-family="sans-serif" font-size="16" font-weight="bold" lengthAdjust="spacing" textLength="6" x="176" y="116.8203">&#160;</text><text fill="#FFFFFF" font-family="sans-serif" font-size="16" font-weight="bold" lengthAdjust="spacing" textLength="30" x="182" y="116.8203">API</text><text fill="#FFFFFF" font-family="sans-serif" font-size="12" font-style="italic" lengthAdjust="spacing" textLength="50" x="126" y="131.7324">[NestJS]</text></g><!--entity inventory_db--><g id="elem_inventory_db"><path d="M58.5,429 C58.5,419 127,419 127,419 C127,419 195.5,419 195.5,429 L195.5,484.5625 C195.5,494.5625 127,494.5625 127,494.5625 C127,494.5625 58.5,494.5625 58.5,484.5625 L58.5,429 " fill="#438DD5" style="stroke:#3C7FC0;stroke-width:0.5;"/><path d="M58.5,429 C58.5,439 127,439 127,439 C127,439 195.5,439 195.5,429 " fill="none" style="stroke:#3C7FC0;stroke-width:0.5;"/><text fill="#FFFFFF" font-family="sans-serif" font-size="12" font-style="italic" lengthAdjust="spacing" textLength="74" x="90" y="454.1387">&#171;container&#187;</text><text fill="#FFFFFF" font-family="sans-serif" font-size="16" font-weight="bold" lengthAdjust="spacing" textLength="86" x="68.5" y="471.8203">Inventory</text><text fill="#FFFFFF" font-family="sans-serif" font-size="16" font-weight="bold" lengthAdjust="spacing" textLength="6" x="154.5" y="471.8203">&#160;</text><text fill="#FFFFFF" font-family="sans-serif" font-size="16" font-weight="bold" lengthAdjust="spacing" textLength="25" x="160.5" y="471.8203">DB</text><text fill="#FFFFFF" font-family="sans-serif" font-size="12" font-style="italic" lengthAdjust="spacing" textLength="80" x="87" y="486.7324">[PostgreSQL]</text></g><!--entity inventory_repo--><g id="elem_inventory_repo"><rect fill="#438DD5" height="66.5625" style="stroke:#3C7FC0;stroke-width:0.5;" width="208" x="23" y="277"/><text fill="#FFFFFF" font-family="sans-serif" font-size="12" font-style="italic" lengthAdjust="spacing" textLength="117" x="68.5" y="298.1387">&#171;repo&#187;&#171;container&#187;</text><text fill="#FFFFFF" font-family="sans-serif" font-size="16" font-weight="bold" lengthAdjust="spacing" textLength="86" x="33" y="315.8203">Inventory</text><text fill="#FFFFFF" font-family="sans-serif" font-size="16" font-weight="bold" lengthAdjust="spacing" textLength="6" x="119" y="315.8203">&#160;</text><text fill="#FFFFFF" font-family="sans-serif" font-size="16" font-weight="bold" lengthAdjust="spacing" textLength="96" x="125" y="315.8203">Repository</text><text fill="#FFFFFF" font-family="sans-serif" font-size="12" font-style="italic" lengthAdjust="spacing" textLength="50" x="102" y="330.7324">[NestJS]</text></g><!--entity fulfillment_api--><g id="elem_fulfillment_api"><rect fill="#438DD5" height="66.5625" style="stroke:#3C7FC0;stroke-width:0.5;" width="146" x="644" y="78"/><text fill="#FFFFFF" font-family="sans-serif" font-size="12" font-style="italic" lengthAdjust="spacing" textLength="74" x="680" y="99.1387">&#171;container&#187;</text><text fill="#FFFFFF" font-family="sans-serif" font-size="16" font-weight="bold" lengthAdjust="spacing" textLength="90" x="654" y="116.8203">Fulfillment</text><text fill="#FFFFFF" font-family="sans-serif" font-size="16" font-weight="bold" lengthAdjust="spacing" textLength="6" x="744" y="116.8203">&#160;</text><text fill="#FFFFFF" font-family="sans-serif" font-size="16" font-weight="bold" lengthAdjust="spacing" textLength="30" x="750" y="116.8203">API</text><text fill="#FFFFFF" font-family="sans-serif" font-size="12" font-style="italic" lengthAdjust="spacing" textLength="50" x="692" y="131.7324">[NestJS]</text></g><!--entity fulfillment_db--><g id="elem_fulfillment_db"><path d="M679.5,429 C679.5,419 750,419 750,419 C750,419 820.5,419 820.5,429 L820.5,484.5625 C820.5,494.5625 750,494.5625 750,494.5625 C750,494.5625 679.5,494.5625 679.5,484.5625 L679.5,429 " fill="#438DD5" style="stroke:#3C7FC0;stroke-width:0.5;"/><path d="M679.5,429 C679.5,439 750,439 750,439 C750,439 820.5,439 820.5,429 " fill="none" style="stroke:#3C7FC0;stroke-width:0.5;"/><text fill="#FFFFFF" font-family="sans-serif" font-size="12" font-style="italic" lengthAdjust="spacing" textLength="74" x="713" y="454.1387">&#171;container&#187;</text><text fill="#FFFFFF" font-family="sans-serif" font-size="16" font-weight="bold" lengthAdjust="spacing" textLength="90" x="689.5" y="471.8203">Fulfillment</text><text fill="#FFFFFF" font-family="sans-serif" font-size="16" font-weight="bold" lengthAdjust="spacing" textLength="6" x="779.5" y="471.8203">&#160;</text><text fill="#FFFFFF" font-family="sans-serif" font-size="16" font-weight="bold" lengthAdjust="spacing" textLength="25" x="785.5" y="471.8203">DB</text><text fill="#FFFFFF" font-family="sans-serif" font-size="12" font-style="italic" lengthAdjust="spacing" textLength="80" x="710" y="486.7324">[PostgreSQL]</text></g><!--entity fulfillment_repo--><g id="elem_fulfillment_repo"><rect fill="#438DD5" height="66.5625" style="stroke:#3C7FC0;stroke-width:0.5;" width="212" x="644" y="277"/><text fill="#FFFFFF" font-family="sans-serif" font-size="12" font-style="italic" lengthAdjust="spacing" textLength="117" x="691.5" y="298.1387">&#171;repo&#187;&#171;container&#187;</text><text fill="#FFFFFF" font-family="sans-serif" font-size="16" font-weight="bold" lengthAdjust="spacing" textLength="90" x="654" y="315.8203">Fulfillment</text><text fill="#FFFFFF" font-family="sans-serif" font-size="16" font-weight="bold" lengthAdjust="spacing" textLength="6" x="744" y="315.8203">&#160;</text><text fill="#FFFFFF" font-family="sans-serif" font-size="16" font-weight="bold" lengthAdjust="spacing" textLength="96" x="750" y="315.8203">Repository</text><text fill="#FFFFFF" font-family="sans-serif" font-size="12" font-style="italic" lengthAdjust="spacing" textLength="50" x="725" y="330.7324">[NestJS]</text></g><!--link orders_api to orders_repo--><g id="link_orders_api_orders_repo"><path d="M363.47,344.29 C374.84,365.63 389.74,393.59 401.79,416.2 " fill="none" id="orders_api-to-orders_repo" style="stroke:#666666;stroke-width:1.0;"/><polygon fill="#666666" points="405.6,423.34,404.4824,414.8694,399.1882,417.6929,405.6,423.34" style="stroke:#666666;stroke-width:1.0;"/><text fill="#666666" font-family="sans-serif" font-size="12" font-weight="bold" lengthAdjust="spacing" textLength="35" x="387" y="386.1387">HTTP</text></g><!--link orders_repo to orders_db--><g id="link_orders_repo_orders_db"><path d="M423,490.76 C423,512.1 423,540.23 423,563.7 " fill="none" id="orders_repo-to-orders_db" style="stroke:#666666;stroke-width:1.0;"/><polygon fill="#666666" points="423,571.78,426,563.78,420,563.78,423,571.78" style="stroke:#666666;stroke-width:1.0;"/><text fill="#666666" font-family="sans-serif" font-size="12" font-weight="bold" lengthAdjust="spacing" textLength="27" x="424" y="539.1387">SQL</text></g><!--link orders_events to orders_repo--><g id="link_orders_events_orders_repo"><path d="M493.35,344.29 C479.85,365.72 462.15,393.83 447.88,416.5 " fill="none" id="orders_events-to-orders_repo" style="stroke:#666666;stroke-width:1.0;"/><polygon fill="#666666" points="443.57,423.34,450.3677,418.164,445.2882,414.9705,443.57,423.34" style="stroke:#666666;stroke-width:1.0;"/><text fill="#666666" font-family="sans-serif" font-size="12" font-weight="bold" lengthAdjust="spacing" textLength="35" x="474" y="386.1387">HTTP</text></g><!--link inventory_api to inventory_repo--><g id="link_inventory_api_inventory_repo"><path d="M147.04,145.03 C142.9,178.97 136.41,232.23 131.95,268.9 " fill="none" id="inventory_api-to-inventory_repo" style="stroke:#666666;stroke-width:1.0;"/><polygon fill="#666666" points="130.97,276.92,134.919,269.3434,128.9634,268.615,130.97,276.92" style="stroke:#666666;stroke-width:1.0;"/><text fill="#666666" font-family="sans-serif" font-size="12" font-weight="bold" lengthAdjust="spacing" textLength="35" x="145" y="187.1387">HTTP</text></g><!--link inventory_repo to inventory_db--><g id="link_inventory_repo_inventory_db"><path d="M127,344.29 C127,363.93 127,389.18 127,410.71 " fill="none" id="inventory_repo-to-inventory_db" style="stroke:#666666;stroke-width:1.0;"/><polygon fill="#666666" points="127,418.76,130,410.76,124,410.76,127,418.76" style="stroke:#666666;stroke-width:1.0;"/><text fill="#666666" font-family="sans-serif" font-size="12" font-weight="bold" lengthAdjust="spacing" textLength="27" x="128" y="386.1387">SQL</text></g><!--link fulfillment_api to fulfillment_repo--><g id="link_fulfillment_api_fulfillment_repo"><path d="M722.45,145.03 C728.13,178.97 737.06,232.23 743.2,268.9 " fill="none" id="fulfillment_api-to-fulfillment_repo" style="stroke:#666666;stroke-width:1.0;"/><polygon fill="#666666" points="744.54,276.92,746.184,268.5357,740.2656,269.522,744.54,276.92" style="stroke:#666666;stroke-width:1.0;"/><text fill="#666666" font-family="sans-serif" font-size="12" font-weight="bold" lengthAdjust="spacing" textLength="35" x="730" y="187.1387">HTTP</text></g><!--link fulfillment_repo to fulfillment_db--><g id="link_fulfillment_repo_fulfillment_db"><path d="M750,344.29 C750,363.93 750,389.18 750,410.71 " fill="none" id="fulfillment_repo-to-fulfillment_db" style="stroke:#666666;stroke-width:1.0;"/><polygon fill="#666666" points="750,418.76,753,410.76,747,410.76,750,418.76" style="stroke:#666666;stroke-width:1.0;"/><text fill="#666666" font-family="sans-serif" font-size="12" font-weight="bold" lengthAdjust="spacing" textLength="27" x="751" y="386.1387">SQL</text></g><!--link fulfillment_api to orders_api--><g id="link_fulfillment_api_orders_api"><path d="M643.93,119.88 C580.5,129.32 488.75,150.59 423,198 C397.67,216.27 377.9,245.58 364.74,269.56 " fill="none" id="fulfillment_api-to-orders_api" style="stroke:#666666;stroke-width:1.0;"/><polygon fill="#666666" points="360.87,276.82,367.2865,271.1783,361.9948,268.3504,360.87,276.82" style="stroke:#666666;stroke-width:1.0;"/><text fill="#666666" font-family="sans-serif" font-size="12" font-weight="bold" lengthAdjust="spacing" textLength="35" x="459" y="187.1387">HTTP</text></g><!--link fulfillment_api to orders_events--><g id="link_fulfillment_api_orders_events"><path d="M682.7,145.32 C666.14,161.19 646,180.55 628,198 C603,222.23 575.05,249.57 553.08,271.1 " fill="none" id="fulfillment_api-to-orders_events" style="stroke:#666666;stroke-width:1.0;"/><polygon fill="#666666" points="547.34,276.73,555.1535,273.2732,550.9539,268.9879,547.34,276.73" style="stroke:#666666;stroke-width:1.0;"/><text fill="#666666" font-family="sans-serif" font-size="12" font-weight="bold" lengthAdjust="spacing" textLength="40" x="650" y="187.1387">Kafka</text></g><!--link inventory_api to orders_api--><g id="link_inventory_api_orders_api"><path d="M189.78,145.21 C207.65,160.74 228.87,179.84 247,198 C270.14,221.18 294.59,248.68 313.4,270.57 " fill="none" id="inventory_api-to-orders_api" style="stroke:#666666;stroke-width:1.0;"/><polygon fill="#666666" points="318.8,276.87,315.8746,268.8424,311.3175,272.7454,318.8,276.87" style="stroke:#666666;stroke-width:1.0;"/><text fill="#666666" font-family="sans-serif" font-size="12" font-weight="bold" lengthAdjust="spacing" textLength="35" x="239" y="187.1387">HTTP</text></g><!--SRC=[fPHRJy8m5CVV-HHrCL4IOIy-cVWWe16l4_2PT5k1XgvTUi4GO-A7y1FwIJoxi1Os94OIabx-lxFpFptj4UKHCp512wrJTU7x4hzrvrGlJ6WKaP7Wcd3TZKJYfmnpRHBMKJfcDFJxvvqWMtfzVF0Jh3IHi3Jj0u4f9xARWhRL6gzX9vdsXE4nbkjJ8MCYrHdodlE1rqRlBGI_YYiLKvpIIeMkWg47ioUYzDtOQpSJP0Mfsj3eEfzdt3sUBN46A9CGkSiFmas4EBJqe9UHWL1wBiduvM7VLoL9XQL6C5DK2xbsyeKH_8yrdgjBBzD3h8zwQIZF4WOKzCFDkA50bQwiKQNzlKnWqvAvKmiUD6l9qgzb_sDvPjYCCfP0A21kxAp1jgCjZJlwWzPTEZVlmWVjktHP09V_ImbEq13kbEIOjKQ4RNNxTaVTJYO188wes71xjSZLaMpkmDvGEyrJEzT6QR6tqptssxMJQIYN4xU-MpkS8ZRKgY-5Kfsmx1TOSCiEBvH2eT0Bb9gGqGZ1YxMY4IoA6IelvFVd5nBBvZItNfez2Rh2we79tvCYGNiFycm4PsidBWgDHbpexGXvKlrHW5PKCAofu4r7qvJT3m00]--></g></svg>