<?xml version="1.0" encoding="us-ascii" standalone="no"?><svg xmlns="http://www.w3.org/2000/svg" xmlns:xlink="http://www.w3.org/1999/xlink" contentStyleType="text/css" height="790px" preserveAspectRatio="none" style="width:1439px;height:790px;background:#FFFFFF;" version="1.1" viewBox="0 0 1439 790" width="1439px" zoomAndPan="magnify"><defs/><g><!--cluster project--><g id="cluster_project"><rect fill="none" height="618" rx="2.5" ry="2.5" style="stroke:#444444;stroke-width:1.0;stroke-dasharray:7.0,7.0;" width="1377" x="7" y="7"/><text fill="#444444" font-family="sans-serif" font-size="16" font-weight="bold" lengthAdjust="spacing" textLength="104" x="643.5" y="23.8516">Our system</text></g><!--cluster our_system--><g id="cluster_our_system"><rect fill="none" height="460" rx="2.5" ry="2.5" style="stroke:#444444;stroke-width:1.0;stroke-dasharray:7.0,7.0;" width="720" x="191" y="141"/><text fill="#444444" font-family="sans-serif" font-size="16" font-weight="bold" lengthAdjust="spacing" textLength="104" x="499" y="157.8516">Our system</text></g><!--entity ext_system--><g id="elem_ext_system"><rect fill="#999999" height="38.625" style="stroke:#8A8A8A;stroke-width:0.5;" width="120" x="927" y="541.5"/><text fill="#FFFFFF" font-family="sans-serif" font-size="16" font-weight="bold" lengthAdjust="spacing" textLength="28" x="937" y="566.3516">Ext</text><text fill="#FFFFFF" font-family="sans-serif" font-size="16" font-weight="bold" lengthAdjust="spacing" textLength="6" x="965" y="566.3516">&#160;</text><text fill="#FFFFFF" font-family="sans-serif" font-size="16" font-weight="bold" lengthAdjust="spacing" textLength="66" x="971" y="566.3516">System</text></g><!--entity front--><g id="elem_front"><rect fill="#999999" height="38.625" style="stroke:#8A8A8A;stroke-width:0.5;" width="68" x="485" y="44"/><text fill="#FFFFFF" font-family="sans-serif" font-size="16" font-weight="bold" lengthAdjust="spacing" textLength="48" x="495" y="68.8516">Front</text></g><!--entity goods_repository--><g id="elem_goods_repository"><rect fill="#999999" height="38.625" style="stroke:#8A8A8A;stroke-width:0.5;" width="178" x="931" y="413"/><text fill="#FFFFFF" font-family="sans-serif" font-size="16" font-weight="bold" lengthAdjust="spacing" textLength="56" x="941" y="437.8516">Goods</text><text fill="#FFFFFF" font-family="sans-serif" font-size="16" font-weight="bold" lengthAdjust="spacing" textLength="6" x="997" y="437.8516">&#160;</text><text fill="#FFFFFF" font-family="sans-serif" font-size="16" font-weight="bold" lengthAdjust="spacing" textLength="96" x="1003" y="437.8516">Repository</text></g><!--entity goods2_repository--><g id="elem_goods2_repository"><rect fill="#999999" height="38.625" style="stroke:#8A8A8A;stroke-width:0.5;" width="189" x="1144.5" y="413"/><text fill="#FFFFFF" font-family="sans-serif" font-size="16" font-weight="bold" lengthAdjust="spacing" textLength="67" x="1154.5" y="437.8516">Goods2</text><text fill="#FFFFFF" font-family="sans-serif" font-size="16" font-weight="bold" lengthAdjust="spacing" textLength="6" x="1221.5" y="437.8516">&#160;</text><text fill="#FFFFFF" font-family="sans-serif" font-size="16" font-weight="bold" lengthAdjust="spacing" textLength="96" x="1227.5" y="437.8516">Repository</text></g><!--entity invoice_dest--><g id="elem_invoice_dest"><rect fill="#999999" height="38.625" style="stroke:#8A8A8A;stroke-width:0.5;" width="179" x="1082.5" y="541.5"/><text fill="#FFFFFF" font-family="sans-serif" font-size="16" font-weight="bold" lengthAdjust="spacing" textLength="63" x="1092.5" y="566.3516">Invoice</text><text fill="#FFFFFF" font-family="sans-serif" font-size="16" font-weight="bold" lengthAdjust="spacing" textLength="6" x="1155.5" y="566.3516">&#160;</text><text fill="#FFFFFF" font-family="sans-serif" font-size="16" font-weight="bold" lengthAdjust="spacing" textLength="90" x="1161.5" y="566.3516">Consumer</text></g><!--entity invoice_source--><g id="elem_invoice_source"><rect fill="#999999" height="38.625" style="stroke:#8A8A8A;stroke-width:0.5;" width="151" x="23.5" y="289"/><text fill="#FFFFFF" font-family="sans-serif" font-size="16" font-weight="bold" lengthAdjust="spacing" textLength="63" x="33.5" y="313.8516">Invoice</text><text fill="#FFFFFF" font-family="sans-serif" font-size="16" font-weight="bold" lengthAdjust="spacing" textLength="6" x="96.5" y="313.8516">&#160;</text><text fill="#FFFFFF" font-family="sans-serif" font-size="16" font-weight="bold" lengthAdjust="spacing" textLength="62" x="102.5" y="313.8516">Source</text></g><!--entity stock--><g id="elem_stock"><rect fill="#999999" height="38.625" style="stroke:#8A8A8A;stroke-width:0.5;" width="71" x="1296.5" y="541.5"/><text fill="#FFFFFF" font-family="sans-serif" font-size="16" font-weight="bold" lengthAdjust="spacing" textLength="51" x="1306.5" y="566.3516">Stock</text></g><!--entity bff--><g id="elem_bff"><rect fill="#438DD5" height="38.625" style="stroke:#3C7FC0;stroke-width:0.5;" width="52" x="493" y="178"/><text fill="#FFFFFF" font-family="sans-serif" font-size="16" font-weight="bold" lengthAdjust="spacing" textLength="32" x="503" y="202.8516">BFF</text></g><!--entity goods_acl--><g id="elem_goods_acl"><rect fill="#438DD5" height="38.625" style="stroke:#3C7FC0;stroke-width:0.5;" width="116" x="674" y="289"/><text fill="#FFFFFF" font-family="sans-serif" font-size="16" font-weight="bold" lengthAdjust="spacing" textLength="56" x="684" y="313.8516">Goods</text><text fill="#FFFFFF" font-family="sans-serif" font-size="16" font-weight="bold" lengthAdjust="spacing" textLength="6" x="740" y="313.8516">&#160;</text><text fill="#FFFFFF" font-family="sans-serif" font-size="16" font-weight="bold" lengthAdjust="spacing" textLength="34" x="746" y="313.8516">ACL</text></g><!--entity camunda--><g id="elem_camunda"><rect fill="#438DD5" height="38.625" style="stroke:#3C7FC0;stroke-width:0.5;" width="101" x="536.5" y="289"/><text fill="#FFFFFF" font-family="sans-serif" font-size="16" font-weight="bold" lengthAdjust="spacing" textLength="81" x="546.5" y="313.8516">Camunda</text></g><!--entity task_repository--><g id="elem_task_repository"><rect fill="#438DD5" height="38.625" style="stroke:#3C7FC0;stroke-width:0.5;" width="164" x="207" y="413"/><text fill="#FFFFFF" font-family="sans-serif" font-size="16" font-weight="bold" lengthAdjust="spacing" textLength="42" x="217" y="437.8516">Task</text><text fill="#FFFFFF" font-family="sans-serif" font-size="16" font-weight="bold" lengthAdjust="spacing" textLength="6" x="259" y="437.8516">&#160;</text><text fill="#FFFFFF" font-family="sans-serif" font-size="16" font-weight="bold" lengthAdjust="spacing" textLength="96" x="265" y="437.8516">Repository</text></g><!--entity invoice_repository--><g id="elem_invoice_repository"><rect fill="#438DD5" height="38.625" style="stroke:#3C7FC0;stroke-width:0.5;" width="185" x="406.5" y="413"/><text fill="#FFFFFF" font-family="sans-serif" font-size="16" font-weight="bold" lengthAdjust="spacing" textLength="63" x="416.5" y="437.8516">Invoice</text><text fill="#FFFFFF" font-family="sans-serif" font-size="16" font-weight="bold" lengthAdjust="spacing" textLength="6" x="479.5" y="437.8516">&#160;</text><text fill="#FFFFFF" font-family="sans-serif" font-size="16" font-weight="bold" lengthAdjust="spacing" textLength="96" x="485.5" y="437.8516">Repository</text></g><!--entity invoice_acl--><g id="elem_invoice_acl"><rect fill="#438DD5" height="38.625" style="stroke:#3C7FC0;stroke-width:0.5;" width="123" x="626.5" y="413"/><text fill="#FFFFFF" font-family="sans-serif" font-size="16" font-weight="bold" lengthAdjust="spacing" textLength="63" x="636.5" y="437.8516">Invoice</text><text fill="#FFFFFF" font-family="sans-serif" font-size="16" font-weight="bold" lengthAdjust="spacing" textLength="6" x="699.5" y="437.8516">&#160;</text><text fill="#FFFFFF" font-family="sans-serif" font-size="16" font-weight="bold" lengthAdjust="spacing" textLength="34" x="705.5" y="437.8516">ACL</text></g><!--entity stock_acl--><g id="elem_stock_acl"><rect fill="#438DD5" height="38.625" style="stroke:#3C7FC0;stroke-width:0.5;" width="111" x="784.5" y="413"/><text fill="#FFFFFF" font-family="sans-serif" font-size="16" font-weight="bold" lengthAdjust="spacing" textLength="51" x="794.5" y="437.8516">Stock</text><text fill="#FFFFFF" font-family="sans-serif" font-size="16" font-weight="bold" lengthAdjust="spacing" textLength="6" x="845.5" y="437.8516">&#160;</text><text fill="#FFFFFF" font-family="sans-serif" font-size="16" font-weight="bold" lengthAdjust="spacing" textLength="34" x="851.5" y="437.8516">ACL</text></g><!--entity task_repository_db--><g id="elem_task_repository_db"><path d="M266.5,547 C266.5,537 289,537 289,537 C289,537 311.5,537 311.5,547 L311.5,574.625 C311.5,584.625 289,584.625 289,584.625 C289,584.625 266.5,584.625 266.5,574.625 L266.5,547 " fill="#438DD5" style="stroke:#3C7FC0;stroke-width:0.5;"/><path d="M266.5,547 C266.5,557 289,557 289,557 C289,557 311.5,557 311.5,547 " fill="none" style="stroke:#3C7FC0;stroke-width:0.5;"/><text fill="#FFFFFF" font-family="sans-serif" font-size="16" font-weight="bold" lengthAdjust="spacing" textLength="25" x="276.5" y="575.8516">DB</text></g><!--entity invoice_repository_db--><g id="elem_invoice_repository_db"><path d="M476.5,547 C476.5,537 499,537 499,537 C499,537 521.5,537 521.5,547 L521.5,574.625 C521.5,584.625 499,584.625 499,584.625 C499,584.625 476.5,584.625 476.5,574.625 L476.5,547 " fill="#438DD5" style="stroke:#3C7FC0;stroke-width:0.5;"/><path d="M476.5,547 C476.5,557 499,557 499,557 C499,557 521.5,557 521.5,547 " fill="none" style="stroke:#3C7FC0;stroke-width:0.5;"/><text fill="#FFFFFF" font-family="sans-serif" font-size="16" font-weight="bold" lengthAdjust="spacing" textLength="25" x="486.5" y="575.8516">DB</text></g><!--link bff to camunda--><g id="link_bff_camunda"><path d="M530.84,217.49 C541.96,235.3 558.67,262.09 570.98,281.81 " fill="none" id="bff-to-camunda" style="stroke:#666666;stroke-width:1.0;"/><polygon fill="#666666" points="575.29,288.73,573.5924,280.3563,568.505,283.5373,575.29,288.73" style="stroke:#666666;stroke-width:1.0;"/><text fill="#666666" font-family="sans-serif" font-size="0" lengthAdjust="spacing" textLength="0" x="556" y="248">.</text></g><!--link bff to goods_acl--><g id="link_bff_goods_acl"><path d="M545.12,211.87 C580.82,230.14 645.34,263.15 688.43,285.21 " fill="none" id="bff-to-goods_acl" style="stroke:#666666;stroke-width:1.0;"/><polygon fill="#666666" points="695.69,288.92,689.9314,282.6082,687.2011,287.951,695.69,288.92" style="stroke:#666666;stroke-width:1.0;"/><text fill="#666666" font-family="sans-serif" font-size="0" lengthAdjust="spacing" textLength="0" x="632" y="248">.</text></g><!--link bff to task_repository--><g id="link_bff_task_repository"><path d="M504.27,217.1 C476.5,251.62 413.75,327.16 353,383 C343.49,391.75 332.47,400.52 322.29,408.15 " fill="none" id="bff-to-task_repository" style="stroke:#666666;stroke-width:1.0;"/><polygon fill="#666666" points="315.74,412.99,323.9553,410.6428,320.3862,405.8197,315.74,412.99" style="stroke:#666666;stroke-width:1.0;"/><text fill="#666666" font-family="sans-serif" font-size="0" lengthAdjust="spacing" textLength="0" x="442" y="303.5">.</text></g><!--link bff to invoice_repository--><g id="link_bff_invoice_repository"><path d="M517.09,217.15 C514.07,246.91 508.13,306.99 504,358 C502.75,373.41 501.57,390.66 500.66,404.57 " fill="none" id="bff-to-invoice_repository" style="stroke:#666666;stroke-width:1.0;"/><polygon fill="#666666" points="500.14,412.76,503.6479,404.9693,497.6603,404.5837,500.14,412.76" style="stroke:#666666;stroke-width:1.0;"/><text fill="#666666" font-family="sans-serif" font-size="0" lengthAdjust="spacing" textLength="0" x="510" y="303.5">.</text></g><!--link camunda to stock_acl--><g id="link_camunda_stock_acl"><path d="M609.78,328.2 C630.46,344.44 662.34,367.71 693,383 C719.38,396.15 750.13,406.93 776.68,414.97 " fill="none" id="camunda-to-stock_acl" style="stroke:#666666;stroke-width:1.0;"/><polygon fill="#666666" points="784.41,417.26,777.5909,412.1122,775.8875,417.8653,784.41,417.26" style="stroke:#666666;stroke-width:1.0;"/><text fill="#666666" font-family="sans-serif" font-size="0" lengthAdjust="spacing" textLength="0" x="694" y="365.5">.</text></g><!--link camunda to task_repository--><g id="link_camunda_task_repository"><path d="M541.74,328.03 C487.98,350.04 398.45,386.69 341.64,409.95 " fill="none" id="camunda-to-task_repository" style="stroke:#666666;stroke-width:1.0;"/><polygon fill="#666666" points="334.2,413,342.7404,412.7521,340.4715,407.1976,334.2,413" style="stroke:#666666;stroke-width:1.0;"/><text fill="#666666" font-family="sans-serif" font-size="0" lengthAdjust="spacing" textLength="0" x="465" y="365.5">.</text></g><!--link camunda to invoice_repository--><g id="link_camunda_invoice_repository"><path d="M578.31,328.13 C570.75,343.5 558.99,365.53 546,383 C539.88,391.23 532.45,399.5 525.33,406.83 " fill="none" id="camunda-to-invoice_repository" style="stroke:#666666;stroke-width:1.0;"/><polygon fill="#666666" points="519.45,412.73,527.2192,409.1748,522.9659,404.9429,519.45,412.73" style="stroke:#666666;stroke-width:1.0;"/><text fill="#666666" font-family="sans-serif" font-size="0" lengthAdjust="spacing" textLength="0" x="562" y="365.5">.</text></g><!--link camunda to invoice_acl--><g id="link_camunda_invoice_acl"><path d="M599.65,328.15 C610.19,343.33 625.87,365.1 641,383 C647.74,390.98 655.48,399.27 662.71,406.7 " fill="none" id="camunda-to-invoice_acl" style="stroke:#666666;stroke-width:1.0;"/><polygon fill="#666666" points="668.62,412.71,665.1534,404.9008,660.8734,409.1058,668.62,412.71" style="stroke:#666666;stroke-width:1.0;"/><text fill="#666666" font-family="sans-serif" font-size="0" lengthAdjust="spacing" textLength="0" x="642" y="365.5">.</text></g><!--link front to bff--><g id="link_front_bff"><path d="M519,83.13 C519,105.73 519,144 519,169.75 " fill="none" id="front-to-bff" style="stroke:#666666;stroke-width:1.0;"/><polygon fill="#666666" points="519,177.96,522,169.96,516,169.96,519,177.96" style="stroke:#666666;stroke-width:1.0;"/><text fill="#666666" font-family="sans-serif" font-size="0" lengthAdjust="spacing" textLength="0" x="520" y="114">.</text></g><!--link goods_acl to goods_repository--><g id="link_goods_acl_goods_repository"><path d="M724.89,328.07 C719.94,344.45 716.27,368 729,383 C755.52,414.25 870.57,406.24 911,413 C914.82,413.64 918.72,414.29 922.65,414.95 " fill="none" id="goods_acl-to-goods_repository" style="stroke:#666666;stroke-width:1.0;"/><polygon fill="#666666" points="930.78,416.32,923.3896,412.0326,922.3928,417.9492,930.78,416.32" style="stroke:#666666;stroke-width:1.0;"/><text fill="#666666" font-family="sans-serif" font-size="0" lengthAdjust="spacing" textLength="0" x="876" y="359">.</text><text fill="#666666" font-family="sans-serif" font-size="12" font-style="italic" lengthAdjust="spacing" textLength="41" x="730" y="380.1387">[https:</text><text fill="#666666" font-family="sans-serif" font-size="12" lengthAdjust="spacing" textLength="251" x="771" y="380.1387">gateway.int.com:443/goods/v1]&lt;/size&gt;//</text></g><!--link goods_acl to goods2_repository--><g id="link_goods_acl_goods2_repository"><path d="M790.26,316.09 C850.2,323.57 946,337.46 1027,358 C1081.92,371.93 1142.87,393.75 1185.27,410.01 " fill="none" id="goods_acl-to-goods2_repository" style="stroke:#666666;stroke-width:1.0;"/><polygon fill="#666666" points="1192.96,412.98,1186.5724,407.3057,1184.4163,412.9049,1192.96,412.98" style="stroke:#666666;stroke-width:1.0;"/><text fill="#666666" font-family="sans-serif" font-size="0" lengthAdjust="spacing" textLength="0" x="1260" y="359">.</text><text fill="#666666" font-family="sans-serif" font-size="12" font-style="italic" lengthAdjust="spacing" textLength="41" x="1110" y="380.1387">[https:</text><text fill="#666666" font-family="sans-serif" font-size="12" lengthAdjust="spacing" textLength="259" x="1151" y="380.1387">gateway.int.com:443/goods2/v1]&lt;/size&gt;//</text></g><!--link invoice_acl to invoice_dest--><g id="link_invoice_acl_invoice_dest"><path d="M749.68,448.37 C791.24,458.84 841.99,472.59 862,482 C879.63,490.29 880,499.55 898,507 C967.68,535.84 991.02,522.41 1065,537 C1069.6,537.91 1074.3,538.85 1079.05,539.82 " fill="none" id="invoice_acl-to-invoice_dest" style="stroke:#666666;stroke-width:1.0;stroke-dasharray:1.0,3.0;"/><polygon fill="#666666" points="1087.07,541.47,1079.8407,536.9162,1078.629,542.7925,1087.07,541.47" style="stroke:#666666;stroke-width:1.0;"/><text fill="#666666" font-family="sans-serif" font-size="0" lengthAdjust="spacing" textLength="0" x="967" y="483">.</text><text fill="#666666" font-family="sans-serif" font-size="12" font-style="italic" lengthAdjust="spacing" textLength="136" x="899" y="504.1387">[result-invoice-q8s-v1]</text></g><!--link invoice_acl to ext_system--><g id="link_invoice_acl_ext_system"><path d="M627.87,452.02 C594.58,465.29 563.66,484.71 584,507 C608.59,533.95 875.19,530.01 911,537 C914.7,537.72 918.47,538.55 922.26,539.46 " fill="none" id="invoice_acl-to-ext_system" style="stroke:#666666;stroke-width:1.0;"/><polygon fill="#666666" points="930.04,541.41,923.017,536.5441,921.5492,542.3618,930.04,541.41" style="stroke:#666666;stroke-width:1.0;"/><text fill="#666666" font-family="sans-serif" font-size="0" lengthAdjust="spacing" textLength="0" x="721" y="483">.</text><text fill="#666666" font-family="sans-serif" font-size="12" font-style="italic" lengthAdjust="spacing" textLength="41" x="585" y="504.1387">[https:</text><text fill="#666666" font-family="sans-serif" font-size="12" lengthAdjust="spacing" textLength="231" x="626" y="504.1387">gateway.int.com:443/ext/v1]&lt;/size&gt;//</text></g><!--link invoice_repository to invoice_repository_db--><g id="link_invoice_repository_invoice_repository_db"><path d="M499,452.17 C499,472.33 499,504.8 499,528.84 " fill="none" id="invoice_repository-to-invoice_repository_db" style="stroke:#666666;stroke-width:1.0;"/><polygon fill="#666666" points="499,536.96,502,528.96,496,528.96,499,536.96" style="stroke:#666666;stroke-width:1.0;"/><text fill="#666666" font-family="sans-serif" font-size="0" lengthAdjust="spacing" textLength="0" x="500" y="489.5">.</text></g><!--link invoice_source to invoice_acl--><g id="link_invoice_source_invoice_acl"><path d="M134.52,328.03 C169.5,345.37 224.96,370.42 276,383 C420.28,418.57 462.3,389.33 609,413 C612.12,413.5 615.3,414.06 618.5,414.66 " fill="none" id="invoice_source-to-invoice_acl" style="stroke:#666666;stroke-width:1.0;stroke-dasharray:1.0,3.0;"/><polygon fill="#666666" points="626.49,416.22,619.2116,411.745,618.0638,417.6342,626.49,416.22" style="stroke:#666666;stroke-width:1.0;"/><text fill="#666666" font-family="sans-serif" font-size="0" lengthAdjust="spacing" textLength="0" x="339.5" y="359">.</text><text fill="#666666" font-family="sans-serif" font-size="12" font-style="italic" lengthAdjust="spacing" textLength="125" x="277" y="380.1387">[orig-invoice-q8s-v1]</text></g><!--link stock_acl to stock--><g id="link_stock_acl_stock"><path d="M895.52,450.81 C897.03,451.22 898.52,451.61 900,452 C961.58,468.06 977.96,467.83 1040,482 C1085.92,492.49 1097.11,496.37 1143,507 C1203.3,520.97 1220.12,517.92 1279,537 C1282.22,538.04 1285.51,539.21 1288.8,540.45 " fill="none" id="stock_acl-to-stock" style="stroke:#666666;stroke-width:1.0;"/><polygon fill="#666666" points="1296.44,543.46,1290.094,537.7391,1287.8971,543.3225,1296.44,543.46" style="stroke:#666666;stroke-width:1.0;"/><text fill="#666666" font-family="sans-serif" font-size="0" lengthAdjust="spacing" textLength="0" x="1287.5" y="483">.</text><text fill="#666666" font-family="sans-serif" font-size="12" font-style="italic" lengthAdjust="spacing" textLength="41" x="1144" y="504.1387">[https:</text><text fill="#666666" font-family="sans-serif" font-size="12" lengthAdjust="spacing" textLength="246" x="1185" y="504.1387">gateway.int.com:443/stock/v1]&lt;/size&gt;//</text></g><!--link task_repository to task_repository_db--><g id="link_task_repository_task_repository_db"><path d="M289,452.17 C289,472.33 289,504.8 289,528.84 " fill="none" id="task_repository-to-task_repository_db" style="stroke:#666666;stroke-width:1.0;"/><polygon fill="#666666" points="289,536.96,292,528.96,286,528.96,289,536.96" style="stroke:#666666;stroke-width:1.0;"/><text fill="#666666" font-family="sans-serif" font-size="0" lengthAdjust="spacing" textLength="0" x="290" y="489.5">.</text></g><text fill="#000000" font-family="sans-serif" font-size="14" font-weight="bold" lengthAdjust="spacing" textLength="59" x="1276" y="661.9951">Legend</text><text fill="#FFFFFF" font-family="sans-serif" font-size="14" lengthAdjust="spacing" textLength="4" x="1335" y="661.9951">&#160;</text><rect fill="#08427B" height="16.2969" style="stroke:none;stroke-width:1.0;" width="132" x="1276" y="665.2969"/><text fill="#FFFFFF" font-family="sans-serif" font-size="14" lengthAdjust="spacing" textLength="49" x="1280" y="678.292">person</text><rect fill="#1168BD" height="16.2969" style="stroke:none;stroke-width:1.0;" width="132" x="1276" y="681.5938"/><text fill="#FFFFFF" font-family="sans-serif" font-size="14" lengthAdjust="spacing" textLength="50" x="1280" y="694.5889">system</text><rect fill="#438DD5" height="16.2969" style="stroke:none;stroke-width:1.0;" width="132" x="1276" y="697.8906"/><text fill="#FFFFFF" font-family="sans-serif" font-size="14" lengthAdjust="spacing" textLength="65" x="1280" y="710.8857">container</text><rect fill="#686868" height="16.2969" style="stroke:none;stroke-width:1.0;" width="132" x="1276" y="714.1875"/><text fill="#FFFFFF" font-family="sans-serif" font-size="14" lengthAdjust="spacing" textLength="108" x="1280" y="727.1826">external person</text><rect fill="#999999" height="16.2969" style="stroke:none;stroke-width:1.0;" width="132" x="1276" y="730.4844"/><text fill="#FFFFFF" font-family="sans-serif" font-size="14" lengthAdjust="spacing" textLength="109" x="1280" y="743.4795">external system</text><rect fill="#B3B3B3" height="16.2969" style="stroke:none;stroke-width:1.0;" width="132" x="1276" y="746.7813"/><text fill="#FFFFFF" font-family="sans-serif" font-size="14" lengthAdjust="spacing" textLength="124" x="1280" y="759.7764">external container</text><line style="stroke:#FFFFFF;stroke-width:1.0;" x1="1276" x2="1408" y1="649" y2="649"/><line style="stroke:#FFFFFF;stroke-width:1.0;" x1="1276" x2="1408" y1="665.2969" y2="665.2969"/><line style="stroke:#FFFFFF;stroke-width:1.0;" x1="1276" x2="1408" y1="681.5938" y2="681.5938"/><line style="stroke:#FFFFFF;stroke-width:1.0;" x1="1276" x2="1408" y1="697.8906" y2="697.8906"/><line style="stroke:#FFFFFF;stroke-width:1.0;" x1="1276" x2="1408" y1="714.1875" y2="714.1875"/><line style="stroke:#FFFFFF;stroke-width:1.0;" x1="1276" x2="1408" y1="730.4844" y2="730.4844"/><line style="stroke:#FFFFFF;stroke-width:1.0;" x1="1276" x2="1408" y1="746.7813" y2="746.7813"/><line style="stroke:#FFFFFF;stroke-width:1.0;" x1="1276" x2="1408" y1="763.0781" y2="763.0781"/><line style="stroke:#FFFFFF;stroke-width:1.0;" x1="1276" x2="1276" y1="649" y2="763.0781"/><line style="stroke:#FFFFFF;stroke-width:1.0;" x1="1408" x2="1408" y1="649" y2="763.0781"/><!--SRC=[dLHDRvmm4BtpArpK0qZPHTtkeOgKmtwcaMXJPJUgUa9Uy18QmDGUag0g_xt3j_dORje3mfhttdZ6y-ntGUo6gSV80q0YBorBqEUf7y13UaWb4owFWSKmTNba9I6D8Ot2YGGl30xMQZxvbeVklzXMH2KmWI5dXGeQn4nC4-HgzkB7xVtU-Nwp_-pOc-lDrxLXQWlFksFXdlg6JcKMk_e5UH-YPWTPoCWLMNC0vjaOCKnJqvOyZJqgCYCH_2TpuOBejwaWCiCz8zqalpL26WvFXLCYOpH2clgCm_68bELsgviznEVSamvrGyIlypLPhEoyIA2-lD8H64XS6kK5e61LhWOCeFBH4IpXCW0kCcJkCKBkcaYxGSuQw8FuYGSkwwQuAOF_dgLihfQVRKy2TnyhqIvVdvMi3_sE7U-0wlLoX3dihKD-nMzNZD7Pl831Ng0TCGOghA0gjAF07P2npVzzi1nnvopBIIidEIQPZMXcVn7LdNbCWdBWsBnC8oPEqINQs6MAO5S4-lHYBFL847pLDBnOfRDRHoBGH5Lhg_6XErLqr7iLeTb7zKWVEvc-ORnfYwvxAxIQStcTgvZIviYaqRXw_Txv5DWppQP1-SfTpkSVhK9YFNquaMps7zbcRRfE4pr_vBa4asa8amgP_Fea9wXjxrhnOewawboBSqKXULYHsjQfAzcJr4RjJGO_BWB_JKqelgdzVAxwWjVMFt3NwCkZcty0]--></g></svg>